<svg xmlns="http://www.w3.org/2000/svg" version="1.1" xmlns:xlink="http://www.w3.org/1999/xlink" xmlns:svgjs="http://svgjs.dev/svgjs" width="1500" height="1500" viewBox="0 0 1500 1500"><rect width="1500" height="1500" fill="#16a554"></rect><g transform="matrix(0.6666666666666666,0,0,0.6666666666666666,249.6337564075534,225.09203778677465)"><svg viewBox="0 0 235 247" data-background-color="#16a554" preserveAspectRatio="xMidYMid meet" height="1576" width="1500" xmlns="http://www.w3.org/2000/svg" xmlns:xlink="http://www.w3.org/1999/xlink"><g id="tight-bounds" transform="matrix(1,0,0,1,0.08606724422494949,-0.09999999999999432)"><svg viewBox="0 0 234.8278655115501 247.2" height="247.2" width="234.8278655115501"><g><svg viewBox="0 0 395.52 416.358355883412" height="247.2" width="234.8278655115501"><g transform="matrix(1,0,0,1,0,261.8149512805948)"><svg viewBox="0 0 395.52 154.5434046028172" height="154.5434046028172" width="395.52"><g id="textblocktransform"><svg viewBox="0 0 395.52 154.5434046028172" height="154.5434046028172" width="395.52" id="textblock"><g><svg viewBox="0 0 395.52 85.90514688601644" height="85.90514688601644" width="395.52"><g transform="matrix(1,0,0,1,0,0)"><svg width="395.52" viewBox="0.4799999999999999 -30.88 204.21 44.36" height="85.90514688601644" data-palette-color="#e4cec5"><path d="M9.8-4.88L9.8-4.88Q9.8-9.8 11.6-17.32L11.6-17.32Q11.72-17.72 11.36-17.68L11.36-17.68Q11.08-17.64 10.84-17.44L10.84-17.44Q9.08-15.96 6.96-11.96 4.84-7.96 3.56-4.66 2.28-1.36 2.28-0.8L2.28-0.8Q2.28-0.32 1.68-0.32L1.68-0.32Q0.48-0.32 0.48-3.48L0.48-3.48Q0.48-9.48 1.68-14.3 2.88-19.12 4.6-19.12L4.6-19.12Q5.36-19.12 5.36-18.28L5.36-18.28Q3.52-12.48 2.72-6.36L2.72-6.36 3.08-6.36Q8.36-19.56 12.8-19.56L12.8-19.56Q14.72-19.56 14.72-17.68L14.72-17.68Q12.84-12.08 12-6.64L12-6.64 12.32-6.64Q13.64-9.44 14.98-11.74 16.32-14.04 18.12-16.02 19.92-18 21.36-18L21.36-18Q23.28-18 23.28-16.16L23.28-16.16Q21.2-9.24 21.2-2.68L21.2-2.68Q21.2 1.56 22.48 1.56L22.48 1.56Q22.92 1.56 23.36 1.18 23.8 0.8 23.96 0.8L23.96 0.8Q24.52 0.8 23.92 1.68L23.92 1.68Q23.76 1.96 23.22 2.44 22.68 2.92 22.16 2.92L22.16 2.92Q20.6 2.92 19.74 0.74 18.88-1.44 18.88-4.92L18.88-4.92Q18.88-11.04 20.16-15.68L20.16-15.68Q20.24-15.96 19.96-15.96L19.96-15.96Q19.72-15.92 19.48-15.72L19.48-15.72Q17.2-13.76 14.4-8.46 11.6-3.16 11.6-2.2L11.6-2.2Q11.6-1.72 10.96-1.72L10.96-1.72Q9.8-1.72 9.8-4.88ZM27.68 12.52L27.68 12.52Q31.28 12.52 33.32 9.12L33.32 9.12Q35.08 6.12 36.04 1.64L36.04 1.64Q28.8 1.8 24.92 7.16L24.92 7.16Q24.68 7.52 24.16 7.28L24.16 7.28Q23.88 7.12 24 6.88L24 6.88Q25.72 4.28 28.8 2.46 31.88 0.64 36.28 0.48L36.28 0.48Q36.72-1.52 37.12-4.2 37.52-6.88 38.04-9.4L38.04-9.4 37.68-9.4Q32.48-0.16 29.76-0.16L29.76-0.16Q26.72-0.16 26.72-4.84 26.72-9.52 28.72-14.26 30.72-19 32.36-19.36L32.36-19.36 32.6-19.4Q33.28-19.4 33.28-18.52L33.28-18.52Q32.84-17.44 32.16-15.7 31.48-13.96 30.36-9.98 29.24-6 29.24-3.78 29.24-1.56 30.2-1.56L30.2-1.56Q31.32-1.56 33.8-5.44L33.8-5.44Q37.44-11.12 40.12-16.96L40.12-16.96Q41.28-19.4 42.6-19.4L42.6-19.4Q43.44-19.4 43.44-18.48L43.44-18.48Q42.68-17.08 41.6-13.24 40.52-9.4 39.84-5.5 39.16-1.6 38.68 0.6L38.68 0.6Q41.72 1.12 42.2 3.24L42.2 3.24Q42.28 3.6 42.28 4.22 42.28 4.84 41.8 5.3 41.32 5.76 40.96 5.76L40.96 5.76Q41.04 5.48 41 4.78 40.96 4.08 40.74 3.6 40.52 3.12 39.92 2.6 39.32 2.08 38.36 1.84L38.36 1.84Q35.28 13.44 27.68 13.44L27.68 13.44Q24.4 13.44 23.32 11.12L23.32 11.12Q23.28 11 23.28 10.92L23.28 10.92Q23.28 10.68 23.7 10.62 24.12 10.56 24.32 10.88L24.32 10.88Q25.04 12.52 27.68 12.52ZM57.84-18.12L57.84-18.12Q59-17.24 60.06-17.24 61.12-17.24 61.56-17.52L61.56-17.52Q61.56-17 61.1-16.54 60.64-16.08 59.78-16.08 58.92-16.08 57.92-16.48L57.92-16.48Q57.8-12.72 56.48-8.78 55.16-4.84 53.08-2.18 51 0.48 48.94 0.48 46.88 0.48 46-1.22 45.12-2.92 45.12-5.12L45.12-5.12Q45.12-7.76 45.86-10.78 46.6-13.8 47.6-15.64 48.6-17.48 49.4-17.48 50.2-17.48 50.2-16.64L50.2-16.64Q47.68-7.92 47.68-4.4 47.68-0.88 49.24-0.88L49.24-0.88Q50.6-0.88 52.34-3.24 54.08-5.6 55.36-9.46 56.64-13.32 56.64-17L56.64-17 56.64-17.24Q55.48-18.08 54.76-19.24 54.04-20.4 54.04-20.98 54.04-21.56 54.56-22.04 55.08-22.52 55.68-22.52L55.68-22.52Q56.4-22.52 57.02-21.18 57.64-19.84 57.84-18.12ZM71.19-19.4L71.19-19.4Q74.23-19.4 74.23-15.84L74.23-15.84Q74.23-13.8 72.87-11.56L72.87-11.56Q70.55-7.84 66.71-7.84L66.71-7.84Q66.11-7.84 65.71-8.04 65.31-8.24 65.11-8.64L65.11-8.64Q67.95-8.64 70.31-11.92L70.31-11.92Q72.23-14.56 72.23-16.76L72.23-16.76Q72.23-18.4 70.91-18.4L70.91-18.4Q68.27-18.4 65.99-14.28L65.99-14.28Q63.55-9.8 63.55-5.08L63.55-5.08Q63.55-1.08 65.83-0.28L65.83-0.28Q66.27-0.12 66.95-0.12 67.63-0.12 68.39-0.46 69.15-0.8 69.67-1.28L69.67-1.28Q70.71-2.24 71.39-3.4L71.39-3.4Q71.55-3.72 71.99-3.72L71.99-3.72Q72.71-3.72 72.67-3.48L72.67-3.48Q72.55-3.04 71.77-2 70.99-0.96 70.33-0.34 69.67 0.28 68.61 0.78 67.55 1.28 66.47 1.28L66.47 1.28Q62.23 1.28 61.07-2.72L61.07-2.72Q60.71-4.08 60.71-5.52L60.71-5.52Q60.71-8.2 61.95-11.36L61.95-11.36Q63.91-16.16 67.35-18.28L67.35-18.28Q69.23-19.4 71.19-19.4ZM79.67 0L79.67 0Q76.39 0 76.39-5.16L76.39-5.16Q76.39-8.24 77.91-11.92L77.91-11.92Q80.03-17.08 83.47-18.96L83.47-18.96Q84.95-19.76 86.23-19.76 87.51-19.76 88.25-19.2 88.99-18.64 89.19-18.08L89.19-18.08 89.43-17.56Q89.31-16.88 88.75-16.88L88.75-16.88Q88.11-16.88 88.01-17.18 87.91-17.48 87.79-17.7 87.67-17.92 87.23-18.3 86.79-18.68 86.23-18.68L86.23-18.68Q83.63-18.68 81.51-14L81.51-14Q79.11-8.6 79.11-3.84L79.11-3.84Q79.11-1.44 80.07-1.44L80.07-1.44Q81.39-1.44 84.33-6.06 87.27-10.68 89.63-15.52L89.63-15.52Q90.83-17.96 92.15-17.96L92.15-17.96Q92.99-17.96 92.99-17L92.99-17Q92.83-16.72 92.51-16.08 92.19-15.44 91.35-12.42 90.51-9.4 89.83-5.5 89.15-1.6 88.67 0.6L88.67 0.6Q91.71 1.12 92.19 3.24L92.19 3.24Q92.27 3.6 92.27 4.22 92.27 4.84 91.79 5.3 91.31 5.76 90.95 5.76L90.95 5.76Q91.03 5.48 90.99 4.78 90.95 4.08 90.73 3.6 90.51 3.12 89.91 2.6 89.31 2.08 88.35 1.84L88.35 1.84Q87.11 6.72 84.79 9.88L84.79 9.88Q82.15 13.44 77.67 13.44L77.67 13.44Q74.39 13.44 73.31 11.12L73.31 11.12Q73.27 11 73.27 10.92L73.27 10.92Q73.27 10.68 73.71 10.58 74.15 10.48 74.31 10.88L74.31 10.88Q75.03 12.52 77.67 12.52L77.67 12.52Q81.27 12.52 83.27 9.12L83.27 9.12Q85.07 6.12 86.03 1.64L86.03 1.64Q78.83 1.8 74.91 7.16L74.91 7.16Q74.67 7.52 74.15 7.28L74.15 7.28Q73.87 7.12 73.99 6.88L73.99 6.88Q75.71 4.28 78.79 2.46 81.87 0.64 86.27 0.48L86.27 0.48Q86.71-1.52 87.05-3.74 87.39-5.96 87.63-7.24 87.87-8.52 87.95-9.08L87.95-9.08 87.51-9.08Q82.23 0 79.67 0ZM98.15 0L98.15 0Q94.87 0 94.87-5.16L94.87-5.16Q94.87-8.24 96.39-11.92L96.39-11.92Q98.51-17.08 101.95-18.96L101.95-18.96Q103.43-19.76 104.71-19.76 105.99-19.76 106.73-19.2 107.47-18.64 107.67-18.08L107.67-18.08 107.91-17.56Q107.79-16.88 107.23-16.88L107.23-16.88Q106.59-16.88 106.49-17.18 106.39-17.48 106.27-17.7 106.15-17.92 105.71-18.3 105.27-18.68 104.71-18.68L104.71-18.68Q102.11-18.68 99.99-14L99.99-14Q97.59-8.6 97.59-3.84L97.59-3.84Q97.59-1.44 98.55-1.44L98.55-1.44Q99.87-1.44 102.81-6.06 105.75-10.68 108.11-15.52L108.11-15.52Q109.31-17.96 110.63-17.96L110.63-17.96Q111.47-17.96 111.47-17L111.47-17Q111.31-16.72 110.99-16.08 110.67-15.44 109.83-12.42 108.99-9.4 108.31-5.5 107.63-1.6 107.15 0.6L107.15 0.6Q110.19 1.12 110.67 3.24L110.67 3.24Q110.75 3.6 110.75 4.22 110.75 4.84 110.27 5.3 109.79 5.76 109.43 5.76L109.43 5.76Q109.51 5.48 109.47 4.78 109.43 4.08 109.21 3.6 108.99 3.12 108.39 2.6 107.79 2.08 106.83 1.84L106.83 1.84Q105.59 6.72 103.27 9.88L103.27 9.88Q100.63 13.44 96.15 13.44L96.15 13.44Q92.87 13.44 91.79 11.12L91.79 11.12Q91.75 11 91.75 10.92L91.75 10.92Q91.75 10.68 92.19 10.58 92.63 10.48 92.79 10.88L92.79 10.88Q93.51 12.52 96.15 12.52L96.15 12.52Q99.75 12.52 101.75 9.12L101.75 9.12Q103.55 6.12 104.51 1.64L104.51 1.64Q97.31 1.8 93.39 7.16L93.39 7.16Q93.15 7.52 92.63 7.28L92.63 7.28Q92.35 7.12 92.47 6.88L92.47 6.88Q94.19 4.28 97.27 2.46 100.35 0.64 104.75 0.48L104.75 0.48Q105.19-1.52 105.53-3.74 105.87-5.96 106.11-7.24 106.35-8.52 106.43-9.08L106.43-9.08 105.99-9.08Q100.71 0 98.15 0ZM114.31-3.4L114.31-3.4Q114.31-9.32 115.53-13.96 116.75-18.6 118.63-18.6L118.63-18.6Q119.55-18.6 119.55-17.6L119.55-17.6Q119.15-16.56 118.55-14.84 117.95-13.12 116.97-8.62 115.99-4.12 115.99-0.6L115.99-0.6Q115.99-0.04 115.39-0.04L115.39-0.04Q114.31-0.04 114.31-3.4ZM120.15-23.04L119.67-22.36Q118.83-22.36 118.83-23.96L118.83-23.96Q118.83-24.92 119.35-25.98 119.87-27.04 120.83-27.04L120.83-27.04Q121.63-27.04 121.63-26.12L121.63-26.12Q121.63-25.2 120.15-23.04L120.15-23.04ZM132.42-19.4L132.42-19.4Q135.46-19.4 135.46-15.84L135.46-15.84Q135.46-13.8 134.1-11.56L134.1-11.56Q131.78-7.84 127.94-7.84L127.94-7.84Q127.34-7.84 126.94-8.04 126.54-8.24 126.34-8.64L126.34-8.64Q129.18-8.64 131.54-11.92L131.54-11.92Q133.46-14.56 133.46-16.76L133.46-16.76Q133.46-18.4 132.14-18.4L132.14-18.4Q129.5-18.4 127.22-14.28L127.22-14.28Q124.78-9.8 124.78-5.08L124.78-5.08Q124.78-1.08 127.06-0.28L127.06-0.28Q127.5-0.12 128.18-0.12 128.86-0.12 129.62-0.46 130.38-0.8 130.9-1.28L130.9-1.28Q131.94-2.24 132.62-3.4L132.62-3.4Q132.78-3.72 133.22-3.72L133.22-3.72Q133.94-3.72 133.9-3.48L133.9-3.48Q133.78-3.04 133-2 132.22-0.96 131.56-0.34 130.9 0.28 129.84 0.78 128.78 1.28 127.7 1.28L127.7 1.28Q123.46 1.28 122.3-2.72L122.3-2.72Q121.94-4.08 121.94-5.52L121.94-5.52Q121.94-8.2 123.18-11.36L123.18-11.36Q125.14-16.16 128.58-18.28L128.58-18.28Q130.46-19.4 132.42-19.4ZM140.38-1.36L140.38-1.36Q140.38 1.44 142.18 1.44L142.18 1.44Q143.86 1.44 145.32-1.32 146.78-4.08 146.78-8.28L146.78-8.28Q146.78-10.32 146.04-14.04 145.3-17.76 145.3-18.9 145.3-20.04 145.38-20.4L145.38-20.4Q144.86-19.56 142.38-14.82 139.9-10.08 137.98-7.32L137.98-7.32Q137.82-7.16 137.54-7.22 137.26-7.28 137.08-7.46 136.9-7.64 136.9-7.72 136.9-7.8 136.94-7.84L136.94-7.84Q138.82-10.56 141.32-15.34 143.82-20.12 145.5-22.48 147.18-24.84 148.82-24.84L148.82-24.84Q149.66-24.84 149.66-24.12L149.66-24.12Q149.66-23.64 148.98-22.84L148.98-22.84Q146.82-20.4 146.82-17.84L146.82-17.84Q146.82-16.32 147.98-11.98 149.14-7.64 149.14-5.68L149.14-5.68Q149.14-2.16 147.18 0.3 145.22 2.76 142.74 2.76L142.74 2.76Q139.22 2.76 139.22-1.28L139.22-1.28Q139.22-4.32 141.08-7.64 142.94-10.96 144.82-12.12L144.82-12.12Q145.18-12.36 145.28-11.84 145.38-11.32 145.14-11.16L145.14-11.16Q143.02-9.96 141.46-6.04L141.46-6.04Q140.38-3.28 140.38-1.36ZM160.02-11.6Q157.9-7.76 156.72-4.8 155.54-1.84 155.54-1.3 155.54-0.76 154.98-0.76L154.98-0.76Q153.78-0.76 153.78-3.96L153.78-3.96Q153.78-10.32 155.06-16.74 156.34-23.16 158.1-27.02 159.86-30.88 161.38-30.88L161.38-30.88Q162.02-30.88 162.02-30.24L162.02-30.24Q159.9-25.56 158.48-19.56 157.06-13.56 156.1-6.76L156.1-6.76 156.38-6.76Q161.46-19.24 166.34-19.24L166.34-19.24Q168.38-19.24 168.38-17.28L168.38-17.28Q168.1-16.36 167.66-14.86 167.22-13.36 166.5-9.48 165.78-5.6 165.78-2.68L165.78-2.68Q165.78 1.56 167.02 1.56L167.02 1.56Q167.46 1.56 167.9 1.18 168.34 0.8 168.5 0.8L168.5 0.8Q169.06 0.8 168.46 1.68L168.46 1.68Q168.3 1.96 167.76 2.44 167.22 2.92 166.7 2.92L166.7 2.92Q165.14 2.92 164.28 0.74 163.42-1.44 163.42-4.92L163.42-4.92Q163.42-10.8 165.18-17.04L165.18-17.04Q165.26-17.64 164.7-17.56L164.7-17.56Q164.42-17.52 164.14-17.24L164.14-17.24Q162.14-15.44 160.02-11.6ZM175.82 0.36L175.82 0.36Q170.9 0.36 170.9-6.4L170.9-6.4Q170.9-10.2 172.82-14L172.82-14Q175.26-18.8 178.62-18.8L178.62-18.8Q179.1-18.8 179.42-18.56 179.74-18.32 179.86-17.84L179.86-17.84Q177.34-17.84 175.5-13.8 173.66-9.76 173.66-5.84L173.66-5.84Q173.66-1.08 176.26-1.08L176.26-1.08Q177.74-1.08 179.34-3.34 180.94-5.6 182-9.28 183.06-12.96 183.06-16.68L183.06-16.68 183.06-17.16Q181.82-17.96 181.02-19.16 180.22-20.36 180.22-20.92 180.22-21.48 180.72-21.98 181.22-22.48 181.74-22.48L181.74-22.48Q182.5-22.48 183.22-21.12 183.94-19.76 184.22-18.04L184.22-18.04Q185.46-17.2 186.4-17.2 187.34-17.2 187.9-17.52L187.9-17.52Q187.9-16.96 187.5-16.52 187.1-16.08 186.26-16.08 185.42-16.08 184.34-16.48L184.34-16.48Q184.3-12.64 183.18-8.76 182.06-4.88 180.06-2.26 178.06 0.36 175.82 0.36ZM195.01-3.68L195.01-3.68Q195.01-1.28 196.29-1.28L196.29-1.28Q197.93-1.28 199.89-5.68L199.89-5.68Q202.17-10.72 202.17-15.12L202.17-15.12Q202.17-18.12 200.59-18.12 199.01-18.12 197.13-15.68 195.25-13.24 193.79-10.02 192.33-6.8 191.29-3.94 190.25-1.08 190.03 0.3 189.81 1.68 189.69 2.38 189.57 3.08 189.31 4.6 189.05 6.12 188.83 6.92 188.61 7.72 188.25 8.94 187.89 10.16 187.51 10.82 187.13 11.48 186.65 12.16L186.65 12.16Q185.69 13.48 184.21 13.48L184.21 13.48Q182.29 13.48 182.29 11.28L182.29 11.28Q182.29 7.36 188.29-3.48L188.29-3.48Q188.89-7.88 189.53-10.6L189.53-10.6Q190.93-17.04 192.51-20.58 194.09-24.12 195.37-24.12L195.37-24.12Q196.01-24.12 196.01-23.36L196.01-23.36Q194.09-18.28 192.05-10.48L192.05-10.48 191.81-9.56 192.33-9.56Q196.89-19.48 200.93-19.48L200.93-19.48Q204.69-19.48 204.69-13.52L204.69-13.52Q204.69-9.2 202.49-4.88L202.49-4.88Q200.05 0 196.65 0L196.65 0Q193.89 0 193.89-3.6L193.89-3.6Q193.89-5.52 194.95-8.02 196.01-10.52 197.73-11.72L197.73-11.72Q198.09-11.92 198.33-11.56L198.33-11.56Q198.37-11.36 198.29-11.28L198.29-11.28Q196.77-10.08 195.89-7.76 195.01-5.44 195.01-3.68ZM183.37 10.92L183.37 10.92Q183.37 12.12 184.25 12.12L184.25 12.12Q186.05 12.12 186.93 7.24L186.93 7.24Q187.25 5.56 188.05-1.24L188.05-1.24Q184.41 5.8 183.53 9.68L183.53 9.68Q183.37 10.4 183.37 10.92Z" opacity="1" transform="matrix(1,0,0,1,0,0)" fill="#e4cec5" class="wordmark-text-0" data-fill-palette-color="primary" id="text-0"></path></svg></g></svg></g><g transform="matrix(1,0,0,1,0,106.18529034227966)"><svg viewBox="0 0 395.52 48.358114260537526" height="48.358114260537526" width="395.52"><g transform="matrix(1,0,0,1,0,0)"><svg width="395.52" viewBox="4.249999999999999 -54.4 685.81 83.25" height="48.358114260537526" data-palette-color="#e4cec5"><path d="M30.25-50.2Q24.05-50.2 19.18-44.45 14.3-38.7 11.35-26.7L11.35-26.7Q10.45-23.1 8.93-15.93 7.4-8.75 6.9-5.2L6.9-5.2Q6.9-3.9 7.95-2.85 9-1.8 10.15-1.8L10.15-1.8Q11.35-1.8 12.68-3.08 14-4.35 14.9-6.53 15.8-8.7 15.8-11.25L15.8-11.25Q15.8-13.25 15.25-15.23 14.7-17.2 14-18.3L14-18.3Q14-18.8 14.75-19.58 15.5-20.35 16-20.45L16-20.45Q17.2-18.4 18.07-17.28 18.95-16.15 20.55-15.38 22.15-14.6 24.65-14.6L24.65-14.6Q26.9-14.6 28.63-15.28 30.35-15.95 31.8-17.4L31.8-17.4Q32.05-17.15 32.05-16.8L32.05-16.8Q32.05-15.8 30.88-14.83 29.7-13.85 27.78-13.23 25.85-12.6 23.85-12.6L23.85-12.6Q22-12.6 20.38-13.18 18.75-13.75 17.6-14.75L17.6-14.75Q18.05-13.2 18.05-11.45L18.05-11.45Q18.05-7.95 16.9-5.2 15.75-2.45 13.9-0.93 12.05 0.6 9.95 0.6L9.95 0.6Q8.3 0.6 7-0.28 5.7-1.15 4.98-2.5 4.25-3.85 4.25-5.15L4.25-5.15Q4.75-8.05 6.1-14.73 7.45-21.4 9-27.3L9-27.3Q12.05-39.1 16.6-46.25 21.15-53.4 28.65-53.4L28.65-53.4Q31.65-53.4 33.52-52.28 35.4-51.15 35.85-49.5L35.85-49.5 35.85-49.05Q33.15-50.2 30.25-50.2L30.25-50.2ZM49-11.95Q49.9-11.8 49.9-10.95L49.9-10.95Q49.9-8.95 47.32-6.28 44.75-3.6 41.25-1.68 37.75 0.25 35.4 0.25L35.4 0.25Q33.15 0.25 31.5-0.93 29.85-2.1 28.97-3.55 28.1-5 28.1-5.7L28.1-5.7Q28.9-8.55 29.85-13.6L29.85-13.6 30.4-16.4Q30.6-17.4 31.85-18.48 33.1-19.55 34.65-20.28 36.2-21 37.15-21L37.15-21Q37.9-21 38.97-20.53 40.05-20.05 40.87-19.05 41.7-18.05 41.7-16.5L41.7-16.5Q41.7-14.7 40.5-13.1 39.3-11.5 36.95-10.5 34.6-9.5 31.3-9.5L31.3-9.5 30.6-6.15Q30.6-5.7 31.12-4.65 31.65-3.6 32.82-2.75 34-1.9 35.8-1.9L35.8-1.9Q38.2-1.9 40.85-3.48 43.5-5.05 45.7-7.4 47.9-9.75 49-11.95L49-11.95ZM36.75-18.95Q36.15-18.95 35.2-18.45 34.25-17.95 33.47-17.2 32.7-16.45 32.55-15.8L32.55-15.8Q32.05-13.55 31.65-11.25L31.65-11.25Q35.5-11.4 37.45-12.78 39.4-14.15 39.4-15.9L39.4-15.9Q39.4-17.15 38.5-18.05 37.6-18.95 36.75-18.95L36.75-18.95ZM66.2-8.3Q66.45-7.95 66.45-7.45L66.45-7.45Q66.45-7.05 66.3-6.75 66.15-6.45 65.8-6L65.8-6Q64.5-4.45 62.17-2.93 59.85-1.4 57.3-0.45 54.75 0.5 52.85 0.5L52.85 0.5Q50.7 0.5 49.27-0.83 47.85-2.15 47.85-4.8L47.85-4.8Q47.85-8.15 50.25-17.4L50.25-17.4 44.95-17.2Q44.85-17.25 44.67-17.38 44.5-17.5 44.45-17.6L44.45-17.6Q44.6-17.85 45-18.6 45.4-19.35 45.7-19.65L45.7-19.65 50.85-19.6Q52.5-25.7 54.65-32.15L54.65-32.15Q55.55-32.85 56.95-33.68 58.35-34.5 58.65-34.5L58.65-34.5Q59.1-34.3 59.2-33.95L59.2-33.95Q58.3-33.6 57.8-33.02 57.3-32.45 56.8-31.15L56.8-31.15Q55.35-27.45 53.3-19.6L53.3-19.6 66.05-19.55 66.09-18.75Q66.09-18.35 65.95-18.2 65.8-18.05 65.25-18L65.25-18Q64.55-17.95 52.75-17.5L52.75-17.5Q50.45-8.1 50.45-4.95L50.45-4.95Q50.45-3.2 51.3-2.38 52.15-1.55 53.9-1.55L53.9-1.55Q59-1.55 66.2-8.3L66.2-8.3ZM83.34-8.3Q83.59-7.95 83.59-7.45L83.59-7.45Q83.59-7.05 83.44-6.75 83.29-6.45 82.94-6L82.94-6Q81.64-4.45 79.32-2.93 76.99-1.4 74.44-0.45 71.89 0.5 69.99 0.5L69.99 0.5Q67.84 0.5 66.42-0.83 64.99-2.15 64.99-4.8L64.99-4.8Q64.99-8.15 67.39-17.4L67.39-17.4 62.09-17.2Q61.99-17.25 61.82-17.38 61.64-17.5 61.59-17.6L61.59-17.6Q61.74-17.85 62.14-18.6 62.54-19.35 62.84-19.65L62.84-19.65 67.99-19.6Q69.64-25.7 71.79-32.15L71.79-32.15Q72.69-32.85 74.09-33.68 75.49-34.5 75.79-34.5L75.79-34.5Q76.24-34.3 76.34-33.95L76.34-33.95Q75.44-33.6 74.94-33.02 74.44-32.45 73.94-31.15L73.94-31.15Q72.49-27.45 70.44-19.6L70.44-19.6 83.19-19.55 83.24-18.75Q83.24-18.35 83.09-18.2 82.94-18.05 82.39-18L82.39-18Q81.69-17.95 69.89-17.5L69.89-17.5Q67.59-8.1 67.59-4.95L67.59-4.95Q67.59-3.2 68.44-2.38 69.29-1.55 71.04-1.55L71.04-1.55Q76.14-1.55 83.34-8.3L83.34-8.3ZM102.19-11.95Q103.09-11.8 103.09-10.95L103.09-10.95Q103.09-8.95 100.52-6.28 97.94-3.6 94.44-1.68 90.94 0.25 88.59 0.25L88.59 0.25Q86.34 0.25 84.69-0.93 83.04-2.1 82.17-3.55 81.29-5 81.29-5.7L81.29-5.7Q82.09-8.55 83.04-13.6L83.04-13.6 83.59-16.4Q83.79-17.4 85.04-18.48 86.29-19.55 87.84-20.28 89.39-21 90.34-21L90.34-21Q91.09-21 92.17-20.53 93.24-20.05 94.07-19.05 94.89-18.05 94.89-16.5L94.89-16.5Q94.89-14.7 93.69-13.1 92.49-11.5 90.14-10.5 87.79-9.5 84.49-9.5L84.49-9.5 83.79-6.15Q83.79-5.7 84.32-4.65 84.84-3.6 86.02-2.75 87.19-1.9 88.99-1.9L88.99-1.9Q91.39-1.9 94.04-3.48 96.69-5.05 98.89-7.4 101.09-9.75 102.19-11.95L102.19-11.95ZM89.94-18.95Q89.34-18.95 88.39-18.45 87.44-17.95 86.67-17.2 85.89-16.45 85.74-15.8L85.74-15.8Q85.24-13.55 84.84-11.25L84.84-11.25Q88.69-11.4 90.64-12.78 92.59-14.15 92.59-15.9L92.59-15.9Q92.59-17.15 91.69-18.05 90.79-18.95 89.94-18.95L89.94-18.95ZM122.69-17.85Q122.89-17.8 123.04-17.55 123.19-17.3 123.19-17L123.19-17Q123.19-15.95 122.21-14.98 121.24-14 119.66-13.4 118.09-12.8 116.49-12.8L116.49-12.8Q113.99-12.8 112.21-14.1 110.44-15.4 109.94-17.75L109.94-17.75Q107.69-17.5 105.81-14.9 103.94-12.3 103.19-9.25L103.19-9.25Q103.09-8.75 102.44-6.18 101.79-3.6 101.19-0.1L101.19-0.1Q101.14 0.05 101.06 0.13 100.99 0.2 100.74 0.2L100.74 0.2Q100.39 0.2 99.69-0.1 98.99-0.4 98.99-0.75L98.99-0.75Q98.99-1.45 99.24-2.6L99.24-2.6Q102.29-16.7 103.19-20.05L103.19-20.05Q103.29-20.5 103.41-20.65 103.54-20.8 103.84-20.8L103.84-20.8Q104.04-20.8 104.69-20.48 105.34-20.15 105.74-19.8L105.74-19.8 104.84-16.9 104.54-15.9Q105.69-17.7 107.19-18.8 108.69-19.9 110.39-19.9L110.39-19.9Q110.89-19.9 111.39-19.8 111.89-19.7 112.09-19.55L112.09-19.55Q112.09-17.1 113.36-15.93 114.64-14.75 116.94-14.75L116.94-14.75Q118.99-14.75 120.34-15.45 121.69-16.15 122.69-17.85L122.69-17.85ZM146.88-20.9Q147.53-20.9 148.36-20.38 149.18-19.85 149.38-19.2L149.38-19.2Q148.78-17.2 148.23-15L148.23-15Q147.98-14.15 147.18-11.28 146.38-8.4 145.08-4.25L145.08-4.25Q142.18 4.9 139.36 11.03 136.53 17.15 131.63 21.4 126.73 25.65 119.43 25.65L119.43 25.65Q115.78 25.65 113.33 24.55 110.88 23.45 109.71 21.7 108.53 19.95 108.53 17.85L108.53 17.85Q108.53 17.15 108.68 16.78 108.83 16.4 108.93 16.1L108.93 16.1Q110.48 19.25 113.06 20.88 115.63 22.5 119.88 22.5L119.88 22.5Q125.58 22.5 129.73 19.58 133.88 16.65 136.88 11.03 139.88 5.4 142.28-3.3L142.28-3.3Q140.78-1.95 138.86-0.98 136.93 0 135.68 0L135.68 0Q134.73 0 133.86-0.6 132.98-1.2 132.41-2.13 131.83-3.05 131.83-3.85L131.83-3.85Q133.18-10 134.38-15.1L134.38-15.1Q134.98-17.8 135.33-19.3L135.33-19.3Q135.53-20.1 135.88-20.4 136.23-20.7 136.98-20.7L136.98-20.7Q137.63-20.7 138.28-20.45L138.28-20.45 134.48-4.45Q134.48-3.7 135.11-3.05 135.73-2.4 136.48-2.4L136.48-2.4Q137.58-2.4 139.88-3.85 142.18-5.3 142.98-6.35L142.98-6.35Q144.08-9.05 144.78-11.75 145.48-14.45 146.38-18.6L146.38-18.6 146.88-20.9ZM181.18-17.65Q181.68-17.5 181.68-16.65L181.68-16.65Q181.68-15.4 180.68-14.08 179.68-12.75 177.96-11.9 176.23-11.05 174.18-11.05L174.18-11.05Q171.43-11.05 169.33-12.55L169.33-12.55Q169.03-11.1 168.58-9.6L168.58-9.6Q168.43-9.05 167.93-7.08 167.43-5.1 167.23-3.55L167.23-3.55Q166.88-2.75 165.83-1.83 164.78-0.9 163.33-0.25 161.88 0.4 160.48 0.4L160.48 0.4Q158.93 0.4 157.48-0.4 156.03-1.2 155.11-2.55 154.18-3.9 154.18-5.55L154.18-5.55Q154.88-7.65 155.33-9.5 155.78-11.35 156.18-13.25L156.18-13.25 156.68-15.75Q156.93-16.9 158.03-18.03 159.13-19.15 160.71-19.88 162.28-20.6 163.88-20.6L163.88-20.6Q164.48-20.6 165.58-20.4L165.58-20.4Q165.73-21.55 166.11-22 166.48-22.45 167.33-22.45L167.33-22.45Q167.83-22.45 168.48-22.3L168.48-22.3Q168.23-20.9 168.23-19.9L168.23-19.9Q168.23-17 169.98-15 171.73-13 174.73-13L174.73-13Q176.98-13 178.61-14.2 180.23-15.4 181.18-17.65L181.18-17.65ZM165.03-4.4Q165.43-6.4 166.18-8.95L166.18-8.95Q167.18-12.3 167.48-14.35L167.48-14.35Q166.38-15.75 165.98-17.75L165.98-17.75Q165.98-17.95 165.91-18.07 165.83-18.2 165.58-18.25L165.58-18.25Q164.83-18.55 163.88-18.55L163.88-18.55Q162.03-18.55 160.68-17.55 159.33-16.55 158.98-15.15L158.98-15.15Q158.83-14.55 157.88-10.45L157.88-10.45Q157.43-8.05 156.78-5.7L156.78-5.7Q156.78-3.85 158.03-2.83 159.28-1.8 160.68-1.8L160.68-1.8Q161.88-1.8 163.26-2.65 164.63-3.5 165.03-4.4L165.03-4.4ZM203.48-11.7Q204.23-11.5 204.28-10.8L204.28-10.8Q204.28-9.6 202.38-6.83 200.48-4.05 197.68-1.85 194.88 0.35 192.08 0.35L192.08 0.35Q190.18 0.35 189.1-0.78 188.03-1.9 188.03-3.8L188.03-3.8Q188.03-4.45 188.13-4.85L188.13-4.85Q187.03-3.05 185.25-1.48 183.48 0.1 181.78 0.1L181.78 0.1Q180.33 0.1 178.93-1.05 177.53-2.2 177.23-3.4L177.23-3.4Q177.18-5.65 177.85-8.55 178.53-11.45 180.93-19.8L180.93-19.8Q181.23-20.75 181.63-20.75L181.63-20.75Q182.03-20.75 182.68-20.35 183.33-19.95 183.33-19.55L183.33-19.55Q183.33-19.35 183.2-19 183.08-18.65 183.03-18.45L183.03-18.45Q179.83-7.65 179.68-4.15L179.68-4.15Q179.93-3.5 180.75-2.83 181.58-2.15 182.18-2.15L182.18-2.15Q182.83-2.15 183.98-2.93 185.13-3.7 186.43-5.48 187.73-7.25 188.83-10.1L188.83-10.1Q190.13-13.55 191.73-20.2L191.73-20.2Q191.83-20.75 192.28-20.75L192.28-20.75Q192.68-20.75 193.35-20.33 194.03-19.9 194.03-19.35L194.03-19.35Q194.03-18.9 193.58-17.55 193.13-16.2 193.03-15.85L193.03-15.85Q191.83-12.35 191.1-9.68 190.38-7 190.38-4.9L190.38-4.9Q190.38-1.65 192.63-1.65L192.63-1.65Q194.08-1.65 195.98-2.88 197.88-4.1 199.85-6.4 201.83-8.7 203.48-11.7L203.48-11.7ZM223.88-17.85Q224.08-17.8 224.23-17.55 224.38-17.3 224.38-17L224.38-17Q224.38-15.95 223.4-14.98 222.43-14 220.85-13.4 219.28-12.8 217.68-12.8L217.68-12.8Q215.18-12.8 213.4-14.1 211.63-15.4 211.13-17.75L211.13-17.75Q208.88-17.5 207-14.9 205.13-12.3 204.38-9.25L204.38-9.25Q204.28-8.75 203.63-6.18 202.98-3.6 202.38-0.1L202.38-0.1Q202.33 0.05 202.25 0.13 202.18 0.2 201.93 0.2L201.93 0.2Q201.58 0.2 200.88-0.1 200.18-0.4 200.18-0.75L200.18-0.75Q200.18-1.45 200.43-2.6L200.43-2.6Q203.48-16.7 204.38-20.05L204.38-20.05Q204.48-20.5 204.6-20.65 204.73-20.8 205.03-20.8L205.03-20.8Q205.23-20.8 205.88-20.48 206.53-20.15 206.93-19.8L206.93-19.8 206.03-16.9 205.73-15.9Q206.88-17.7 208.38-18.8 209.88-19.9 211.58-19.9L211.58-19.9Q212.08-19.9 212.58-19.8 213.08-19.7 213.28-19.55L213.28-19.55Q213.28-17.1 214.55-15.93 215.83-14.75 218.13-14.75L218.13-14.75Q220.18-14.75 221.53-15.45 222.88-16.15 223.88-17.85L223.88-17.85ZM259.17-54.4Q263.47-54.4 265.97-52.03 268.47-49.65 268.47-45.35L268.47-45.35 268.12-44.75Q267.02-48.15 264.67-49.78 262.32-51.4 259.02-51.4L259.02-51.4Q252.07-51.4 247.22-43.58 242.37-35.75 238.82-21L238.82-21 237.52-15.35 236.87-12.45Q238.92-15.35 242.07-18.07 245.22-20.8 246.82-20.8L246.82-20.8Q247.22-20.8 248-20.05 248.77-19.3 248.77-18.95L248.77-18.95Q247.82-16.2 246.52-10.9 245.22-5.6 245.22-4.15L245.22-4.15Q245.22-2.75 245.67-2.13 246.12-1.5 247.52-1.5L247.52-1.5Q250.02-1.5 252.37-3.4 254.72-5.3 256.45-7.73 258.17-10.15 259.07-12L259.07-12Q259.42-11.9 259.62-11.65 259.82-11.4 259.87-10.9L259.87-10.9 259.87-10.75Q259.87-10.15 259.47-9.35L259.47-9.35Q257.17-5.15 253.57-2.27 249.97 0.6 246.57 0.6L246.57 0.6Q244.82 0.6 243.77-0.5 242.72-1.6 242.72-3.6L242.72-3.6Q242.72-5.55 243.35-8.4 243.97-11.25 245.02-15.1L245.02-15.1Q244.97-14.85 245.57-17.15L245.57-17.15Q245.52-17.35 245.32-17.5 245.12-17.65 244.97-17.65L244.97-17.65Q244.47-17.65 242.62-16 240.77-14.35 238.87-12.05 236.97-9.75 236.02-7.75L236.02-7.75Q235.52-5.75 235.02-2.75L235.02-2.75Q234.97-2.4 234.92-2 234.87-1.6 234.77-1.2L234.77-1.2Q234.62-0.3 234.5 0.03 234.37 0.35 234.07 0.35L234.07 0.35Q233.47 0.35 232.72 0.05 231.97-0.25 231.97-0.7L231.97-0.7Q231.97-1.35 232.27-2.6L232.27-2.6 236.62-21.05Q240.27-36.65 245.92-45.53 251.57-54.4 259.17-54.4L259.17-54.4ZM277.87-11.95Q278.77-11.8 278.77-10.95L278.77-10.95Q278.77-8.95 276.19-6.28 273.62-3.6 270.12-1.68 266.62 0.25 264.27 0.25L264.27 0.25Q262.02 0.25 260.37-0.93 258.72-2.1 257.84-3.55 256.97-5 256.97-5.7L256.97-5.7Q257.77-8.55 258.72-13.6L258.72-13.6 259.27-16.4Q259.47-17.4 260.72-18.48 261.97-19.55 263.52-20.28 265.07-21 266.02-21L266.02-21Q266.77-21 267.84-20.53 268.92-20.05 269.74-19.05 270.57-18.05 270.57-16.5L270.57-16.5Q270.57-14.7 269.37-13.1 268.17-11.5 265.82-10.5 263.47-9.5 260.17-9.5L260.17-9.5 259.47-6.15Q259.47-5.7 259.99-4.65 260.52-3.6 261.69-2.75 262.87-1.9 264.67-1.9L264.67-1.9Q267.07-1.9 269.72-3.48 272.37-5.05 274.57-7.4 276.77-9.75 277.87-11.95L277.87-11.95ZM265.62-18.95Q265.02-18.95 264.07-18.45 263.12-17.95 262.34-17.2 261.57-16.45 261.42-15.8L261.42-15.8Q260.92-13.55 260.52-11.25L260.52-11.25Q264.37-11.4 266.32-12.78 268.27-14.15 268.27-15.9L268.27-15.9Q268.27-17.15 267.37-18.05 266.47-18.95 265.62-18.95L265.62-18.95ZM303.97-11.55Q304.62-11.55 304.62-10.25L304.62-10.25Q304.62-7.95 302.59-5.4 300.57-2.85 297.69-1.13 294.82 0.6 292.42 0.6L292.42 0.6Q290.47 0.6 289.42-0.6 288.37-1.8 288.17-3.7L288.17-3.7Q286.92-1.9 285.02-0.75 283.12 0.4 281.62 0.4L281.62 0.4Q280.32 0.4 279.04-0.48 277.77-1.35 276.97-2.63 276.17-3.9 276.12-5.05L276.12-5.05 278.57-15.15Q278.87-16.35 280.09-17.73 281.32-19.1 283.07-20 284.82-20.9 286.62-20.9L286.62-20.9Q288.92-20.9 290.67-19.35L290.67-19.35Q291.12-20.55 291.34-20.85 291.57-21.15 292.02-21.2L292.02-21.2 294.47-21.45 294.62-21.35Q293.62-20.55 293.17-18.85L293.17-18.85Q291.62-13.05 291.04-10.3 290.47-7.55 290.47-5.45L290.47-5.45Q290.47-3.35 291.02-2.38 291.57-1.4 292.87-1.4L292.87-1.4Q294.47-1.4 296.69-2.7 298.92-4 300.92-6.33 302.92-8.65 303.97-11.55L303.97-11.55ZM281.82-1.95Q282.67-1.95 283.89-2.55 285.12-3.15 286.19-4.28 287.27-5.4 287.67-6.85L287.67-6.85 288.62-10.95Q288.82-11.95 289.32-14.18 289.82-16.4 290.12-17.6L290.12-17.6Q288.72-19 286.72-19L286.72-19Q285.17-19 283.92-18.18 282.67-17.35 281.87-16.18 281.07-15 280.87-14.1L280.87-14.1 278.87-5.2Q278.97-3.95 279.87-2.95 280.77-1.95 281.82-1.95L281.82-1.95ZM322.91-14Q323.41-14 323.71-13.53 324.01-13.05 324.01-12.35L324.01-12.35Q324.01-11.45 323.51-10.45L323.51-10.45Q322.11-7.5 319.51-5.03 316.91-2.55 313.89-1.1 310.86 0.35 308.26 0.35L308.26 0.35Q302.96 0.35 302.96-5.8L302.96-5.8Q302.96-10.1 305.31-19.63 307.66-29.15 312.11-44.9L312.11-44.9Q313.06-48.15 314.19-49.7 315.31-51.25 316.76-51.25L316.76-51.25Q317.81-51.25 318.79-50.53 319.76-49.8 320.41-48.3 321.06-46.8 321.06-44.6L321.06-44.6Q321.06-41.05 319.39-35.6 317.71-30.15 314.36-24.1 311.01-18.05 306.31-12.9L306.31-12.9Q305.46-8.5 305.46-6.35L305.46-6.35Q305.46-3.95 306.44-2.93 307.41-1.9 309.16-1.9L309.16-1.9Q311.61-1.9 314.39-3.55 317.16-5.2 319.46-8 321.76-10.8 322.91-14L322.91-14ZM313.41-41.75Q309.21-26.65 307.06-16.7L307.06-16.7Q310.76-21.35 313.44-26.85 316.11-32.35 317.44-37.15 318.76-41.95 318.76-44.7L318.76-44.7Q318.76-46.25 318.31-47.38 317.86-48.5 316.81-48.5L316.81-48.5Q316.21-48.5 315.39-47.25 314.56-46 313.41-41.75L313.41-41.75ZM340.11-8.3Q340.36-7.95 340.36-7.45L340.36-7.45Q340.36-7.05 340.21-6.75 340.06-6.45 339.71-6L339.71-6Q338.41-4.45 336.09-2.93 333.76-1.4 331.21-0.45 328.66 0.5 326.76 0.5L326.76 0.5Q324.61 0.5 323.19-0.83 321.76-2.15 321.76-4.8L321.76-4.8Q321.76-8.15 324.16-17.4L324.16-17.4 318.86-17.2Q318.76-17.25 318.59-17.38 318.41-17.5 318.36-17.6L318.36-17.6Q318.51-17.85 318.91-18.6 319.31-19.35 319.61-19.65L319.61-19.65 324.76-19.6Q326.41-25.7 328.56-32.15L328.56-32.15Q329.46-32.85 330.86-33.68 332.26-34.5 332.56-34.5L332.56-34.5Q333.01-34.3 333.11-33.95L333.11-33.95Q332.21-33.6 331.71-33.02 331.21-32.45 330.71-31.15L330.71-31.15Q329.26-27.45 327.21-19.6L327.21-19.6 339.96-19.55 340.01-18.75Q340.01-18.35 339.86-18.2 339.71-18.05 339.16-18L339.16-18Q338.46-17.95 326.66-17.5L326.66-17.5Q324.36-8.1 324.36-4.95L324.36-4.95Q324.36-3.2 325.21-2.38 326.06-1.55 327.81-1.55L327.81-1.55Q332.91-1.55 340.11-8.3L340.11-8.3ZM364.46-54.4Q368.76-54.4 371.26-52.03 373.76-49.65 373.76-45.35L373.76-45.35 373.41-44.75Q372.31-48.15 369.96-49.78 367.61-51.4 364.31-51.4L364.31-51.4Q357.36-51.4 352.51-43.58 347.66-35.75 344.11-21L344.11-21 342.81-15.35 342.16-12.45Q344.21-15.35 347.36-18.07 350.51-20.8 352.11-20.8L352.11-20.8Q352.51-20.8 353.28-20.05 354.06-19.3 354.06-18.95L354.06-18.95Q353.11-16.2 351.81-10.9 350.51-5.6 350.51-4.15L350.51-4.15Q350.51-2.75 350.96-2.13 351.41-1.5 352.81-1.5L352.81-1.5Q355.31-1.5 357.66-3.4 360.01-5.3 361.73-7.73 363.46-10.15 364.36-12L364.36-12Q364.71-11.9 364.91-11.65 365.11-11.4 365.16-10.9L365.16-10.9 365.16-10.75Q365.16-10.15 364.76-9.35L364.76-9.35Q362.46-5.15 358.86-2.27 355.26 0.6 351.86 0.6L351.86 0.6Q350.11 0.6 349.06-0.5 348.01-1.6 348.01-3.6L348.01-3.6Q348.01-5.55 348.63-8.4 349.26-11.25 350.31-15.1L350.31-15.1Q350.26-14.85 350.86-17.15L350.86-17.15Q350.81-17.35 350.61-17.5 350.41-17.65 350.26-17.65L350.26-17.65Q349.76-17.65 347.91-16 346.06-14.35 344.16-12.05 342.26-9.75 341.31-7.75L341.31-7.75Q340.81-5.75 340.31-2.75L340.31-2.75Q340.26-2.4 340.21-2 340.16-1.6 340.06-1.2L340.06-1.2Q339.91-0.3 339.78 0.03 339.66 0.35 339.36 0.35L339.36 0.35Q338.76 0.35 338.01 0.05 337.26-0.25 337.26-0.7L337.26-0.7Q337.26-1.35 337.56-2.6L337.56-2.6 341.91-21.05Q345.56-36.65 351.21-45.53 356.86-54.4 364.46-54.4L364.46-54.4ZM401.75-50.2Q395.55-50.2 390.68-44.45 385.8-38.7 382.85-26.7L382.85-26.7Q381.95-23.1 380.43-15.93 378.9-8.75 378.4-5.2L378.4-5.2Q378.4-3.9 379.45-2.85 380.5-1.8 381.65-1.8L381.65-1.8Q382.85-1.8 384.18-3.08 385.5-4.35 386.4-6.53 387.3-8.7 387.3-11.25L387.3-11.25Q387.3-13.25 386.75-15.23 386.2-17.2 385.5-18.3L385.5-18.3Q385.5-18.8 386.25-19.58 387-20.35 387.5-20.45L387.5-20.45Q388.7-18.4 389.58-17.28 390.45-16.15 392.05-15.38 393.65-14.6 396.15-14.6L396.15-14.6Q398.4-14.6 400.13-15.28 401.85-15.95 403.3-17.4L403.3-17.4Q403.55-17.15 403.55-16.8L403.55-16.8Q403.55-15.8 402.38-14.83 401.2-13.85 399.28-13.23 397.35-12.6 395.35-12.6L395.35-12.6Q393.5-12.6 391.88-13.18 390.25-13.75 389.1-14.75L389.1-14.75Q389.55-13.2 389.55-11.45L389.55-11.45Q389.55-7.95 388.4-5.2 387.25-2.45 385.4-0.93 383.55 0.6 381.45 0.6L381.45 0.6Q379.8 0.6 378.5-0.28 377.2-1.15 376.48-2.5 375.75-3.85 375.75-5.15L375.75-5.15Q376.25-8.05 377.6-14.73 378.95-21.4 380.5-27.3L380.5-27.3Q383.55-39.1 388.1-46.25 392.65-53.4 400.15-53.4L400.15-53.4Q403.15-53.4 405.03-52.28 406.9-51.15 407.35-49.5L407.35-49.5 407.35-49.05Q404.65-50.2 401.75-50.2L401.75-50.2ZM420.5-11.95Q421.4-11.8 421.4-10.95L421.4-10.95Q421.4-8.95 418.82-6.28 416.25-3.6 412.75-1.68 409.25 0.25 406.9 0.25L406.9 0.25Q404.65 0.25 403-0.93 401.35-2.1 400.47-3.55 399.6-5 399.6-5.7L399.6-5.7Q400.4-8.55 401.35-13.6L401.35-13.6 401.9-16.4Q402.1-17.4 403.35-18.48 404.6-19.55 406.15-20.28 407.7-21 408.65-21L408.65-21Q409.4-21 410.47-20.53 411.55-20.05 412.38-19.05 413.2-18.05 413.2-16.5L413.2-16.5Q413.2-14.7 412-13.1 410.8-11.5 408.45-10.5 406.1-9.5 402.8-9.5L402.8-9.5 402.1-6.15Q402.1-5.7 402.63-4.65 403.15-3.6 404.32-2.75 405.5-1.9 407.3-1.9L407.3-1.9Q409.7-1.9 412.35-3.48 415-5.05 417.2-7.4 419.4-9.75 420.5-11.95L420.5-11.95ZM408.25-18.95Q407.65-18.95 406.7-18.45 405.75-17.95 404.97-17.2 404.2-16.45 404.05-15.8L404.05-15.8Q403.55-13.55 403.15-11.25L403.15-11.25Q407-11.4 408.95-12.78 410.9-14.15 410.9-15.9L410.9-15.9Q410.9-17.15 410-18.05 409.1-18.95 408.25-18.95L408.25-18.95ZM437.7-8.3Q437.95-7.95 437.95-7.45L437.95-7.45Q437.95-7.05 437.8-6.75 437.65-6.45 437.3-6L437.3-6Q436-4.45 433.67-2.93 431.35-1.4 428.8-0.45 426.25 0.5 424.35 0.5L424.35 0.5Q422.2 0.5 420.77-0.83 419.35-2.15 419.35-4.8L419.35-4.8Q419.35-8.15 421.75-17.4L421.75-17.4 416.45-17.2Q416.35-17.25 416.17-17.38 416-17.5 415.95-17.6L415.95-17.6Q416.1-17.85 416.5-18.6 416.9-19.35 417.2-19.65L417.2-19.65 422.35-19.6Q424-25.7 426.15-32.15L426.15-32.15Q427.05-32.85 428.45-33.68 429.85-34.5 430.15-34.5L430.15-34.5Q430.6-34.3 430.7-33.95L430.7-33.95Q429.8-33.6 429.3-33.02 428.8-32.45 428.3-31.15L428.3-31.15Q426.85-27.45 424.8-19.6L424.8-19.6 437.55-19.55 437.6-18.75Q437.6-18.35 437.45-18.2 437.3-18.05 436.75-18L436.75-18Q436.05-17.95 424.25-17.5L424.25-17.5Q421.95-8.1 421.95-4.95L421.95-4.95Q421.95-3.2 422.8-2.38 423.65-1.55 425.4-1.55L425.4-1.55Q430.5-1.55 437.7-8.3L437.7-8.3ZM454.84-8.3Q455.09-7.95 455.09-7.45L455.09-7.45Q455.09-7.05 454.94-6.75 454.79-6.45 454.44-6L454.44-6Q453.14-4.45 450.82-2.93 448.49-1.4 445.94-0.45 443.39 0.5 441.49 0.5L441.49 0.5Q439.34 0.5 437.92-0.83 436.49-2.15 436.49-4.8L436.49-4.8Q436.49-8.15 438.89-17.4L438.89-17.4 433.59-17.2Q433.49-17.25 433.32-17.38 433.14-17.5 433.09-17.6L433.09-17.6Q433.24-17.85 433.64-18.6 434.04-19.35 434.34-19.65L434.34-19.65 439.49-19.6Q441.14-25.7 443.29-32.15L443.29-32.15Q444.19-32.85 445.59-33.68 446.99-34.5 447.29-34.5L447.29-34.5Q447.74-34.3 447.84-33.95L447.84-33.95Q446.94-33.6 446.44-33.02 445.94-32.45 445.44-31.15L445.44-31.15Q443.99-27.45 441.94-19.6L441.94-19.6 454.69-19.55 454.74-18.75Q454.74-18.35 454.59-18.2 454.44-18.05 453.89-18L453.89-18Q453.19-17.95 441.39-17.5L441.39-17.5Q439.09-8.1 439.09-4.95L439.09-4.95Q439.09-3.2 439.94-2.38 440.79-1.55 442.54-1.55L442.54-1.55Q447.64-1.55 454.84-8.3L454.84-8.3ZM473.69-11.95Q474.59-11.8 474.59-10.95L474.59-10.95Q474.59-8.95 472.02-6.28 469.44-3.6 465.94-1.68 462.44 0.25 460.09 0.25L460.09 0.25Q457.84 0.25 456.19-0.93 454.54-2.1 453.67-3.55 452.79-5 452.79-5.7L452.79-5.7Q453.59-8.55 454.54-13.6L454.54-13.6 455.09-16.4Q455.29-17.4 456.54-18.48 457.79-19.55 459.34-20.28 460.89-21 461.84-21L461.84-21Q462.59-21 463.67-20.53 464.74-20.05 465.57-19.05 466.39-18.05 466.39-16.5L466.39-16.5Q466.39-14.7 465.19-13.1 463.99-11.5 461.64-10.5 459.29-9.5 455.99-9.5L455.99-9.5 455.29-6.15Q455.29-5.7 455.82-4.65 456.34-3.6 457.52-2.75 458.69-1.9 460.49-1.9L460.49-1.9Q462.89-1.9 465.54-3.48 468.19-5.05 470.39-7.4 472.59-9.75 473.69-11.95L473.69-11.95ZM461.44-18.95Q460.84-18.95 459.89-18.45 458.94-17.95 458.17-17.2 457.39-16.45 457.24-15.8L457.24-15.8Q456.74-13.55 456.34-11.25L456.34-11.25Q460.19-11.4 462.14-12.78 464.09-14.15 464.09-15.9L464.09-15.9Q464.09-17.15 463.19-18.05 462.29-18.95 461.44-18.95L461.44-18.95ZM494.19-17.85Q494.39-17.8 494.54-17.55 494.69-17.3 494.69-17L494.69-17Q494.69-15.95 493.71-14.98 492.74-14 491.16-13.4 489.59-12.8 487.99-12.8L487.99-12.8Q485.49-12.8 483.71-14.1 481.94-15.4 481.44-17.75L481.44-17.75Q479.19-17.5 477.31-14.9 475.44-12.3 474.69-9.25L474.69-9.25Q474.59-8.75 473.94-6.18 473.29-3.6 472.69-0.1L472.69-0.1Q472.64 0.05 472.56 0.13 472.49 0.2 472.24 0.2L472.24 0.2Q471.89 0.2 471.19-0.1 470.49-0.4 470.49-0.75L470.49-0.75Q470.49-1.45 470.74-2.6L470.74-2.6Q473.79-16.7 474.69-20.05L474.69-20.05Q474.79-20.5 474.91-20.65 475.04-20.8 475.34-20.8L475.34-20.8Q475.54-20.8 476.19-20.48 476.84-20.15 477.24-19.8L477.24-19.8 476.34-16.9 476.04-15.9Q477.19-17.7 478.69-18.8 480.19-19.9 481.89-19.9L481.89-19.9Q482.39-19.9 482.89-19.8 483.39-19.7 483.59-19.55L483.59-19.55Q483.59-17.1 484.86-15.93 486.14-14.75 488.44-14.75L488.44-14.75Q490.49-14.75 491.84-15.45 493.19-16.15 494.19-17.85L494.19-17.85ZM518.38-20.9Q519.03-20.9 519.86-20.38 520.68-19.85 520.88-19.2L520.88-19.2Q520.28-17.2 519.73-15L519.73-15Q519.48-14.15 518.68-11.28 517.88-8.4 516.58-4.25L516.58-4.25Q513.68 4.9 510.86 11.03 508.03 17.15 503.13 21.4 498.23 25.65 490.93 25.65L490.93 25.65Q487.28 25.65 484.83 24.55 482.38 23.45 481.21 21.7 480.03 19.95 480.03 17.85L480.03 17.85Q480.03 17.15 480.18 16.78 480.33 16.4 480.43 16.1L480.43 16.1Q481.98 19.25 484.56 20.88 487.13 22.5 491.38 22.5L491.38 22.5Q497.08 22.5 501.23 19.58 505.38 16.65 508.38 11.03 511.38 5.4 513.78-3.3L513.78-3.3Q512.28-1.95 510.36-0.98 508.43 0 507.18 0L507.18 0Q506.23 0 505.36-0.6 504.48-1.2 503.91-2.13 503.33-3.05 503.33-3.85L503.33-3.85Q504.68-10 505.88-15.1L505.88-15.1Q506.48-17.8 506.83-19.3L506.83-19.3Q507.03-20.1 507.38-20.4 507.73-20.7 508.48-20.7L508.48-20.7Q509.13-20.7 509.78-20.45L509.78-20.45 505.98-4.45Q505.98-3.7 506.61-3.05 507.23-2.4 507.98-2.4L507.98-2.4Q509.08-2.4 511.38-3.85 513.68-5.3 514.48-6.35L514.48-6.35Q515.58-9.05 516.28-11.75 516.98-14.45 517.88-18.6L517.88-18.6 518.38-20.9ZM552.68-17.65Q553.18-17.5 553.18-16.65L553.18-16.65Q553.18-15.4 552.18-14.08 551.18-12.75 549.46-11.9 547.73-11.05 545.68-11.05L545.68-11.05Q542.93-11.05 540.83-12.55L540.83-12.55Q540.53-11.1 540.08-9.6L540.08-9.6Q539.93-9.05 539.43-7.08 538.93-5.1 538.73-3.55L538.73-3.55Q538.38-2.75 537.33-1.83 536.28-0.9 534.83-0.25 533.38 0.4 531.98 0.4L531.98 0.4Q530.43 0.4 528.98-0.4 527.53-1.2 526.61-2.55 525.68-3.9 525.68-5.55L525.68-5.55Q526.38-7.65 526.83-9.5 527.28-11.35 527.68-13.25L527.68-13.25 528.18-15.75Q528.43-16.9 529.53-18.03 530.63-19.15 532.21-19.88 533.78-20.6 535.38-20.6L535.38-20.6Q535.98-20.6 537.08-20.4L537.08-20.4Q537.23-21.55 537.61-22 537.98-22.45 538.83-22.45L538.83-22.45Q539.33-22.45 539.98-22.3L539.98-22.3Q539.73-20.9 539.73-19.9L539.73-19.9Q539.73-17 541.48-15 543.23-13 546.23-13L546.23-13Q548.48-13 550.11-14.2 551.73-15.4 552.68-17.65L552.68-17.65ZM536.53-4.4Q536.93-6.4 537.68-8.95L537.68-8.95Q538.68-12.3 538.98-14.35L538.98-14.35Q537.88-15.75 537.48-17.75L537.48-17.75Q537.48-17.95 537.41-18.07 537.33-18.2 537.08-18.25L537.08-18.25Q536.33-18.55 535.38-18.55L535.38-18.55Q533.53-18.55 532.18-17.55 530.83-16.55 530.48-15.15L530.48-15.15Q530.33-14.55 529.38-10.45L529.38-10.45Q528.93-8.05 528.28-5.7L528.28-5.7Q528.28-3.85 529.53-2.83 530.78-1.8 532.18-1.8L532.18-1.8Q533.38-1.8 534.76-2.65 536.13-3.5 536.53-4.4L536.53-4.4ZM574.98-11.7Q575.73-11.5 575.78-10.8L575.78-10.8Q575.78-9.6 573.88-6.83 571.98-4.05 569.18-1.85 566.38 0.35 563.58 0.35L563.58 0.35Q561.68 0.35 560.6-0.78 559.53-1.9 559.53-3.8L559.53-3.8Q559.53-4.45 559.63-4.85L559.63-4.85Q558.53-3.05 556.75-1.48 554.98 0.1 553.28 0.1L553.28 0.1Q551.83 0.1 550.43-1.05 549.03-2.2 548.73-3.4L548.73-3.4Q548.68-5.65 549.35-8.55 550.03-11.45 552.43-19.8L552.43-19.8Q552.73-20.75 553.13-20.75L553.13-20.75Q553.53-20.75 554.18-20.35 554.83-19.95 554.83-19.55L554.83-19.55Q554.83-19.35 554.7-19 554.58-18.65 554.53-18.45L554.53-18.45Q551.33-7.65 551.18-4.15L551.18-4.15Q551.43-3.5 552.25-2.83 553.08-2.15 553.68-2.15L553.68-2.15Q554.33-2.15 555.48-2.93 556.63-3.7 557.93-5.48 559.23-7.25 560.33-10.1L560.33-10.1Q561.63-13.55 563.23-20.2L563.23-20.2Q563.33-20.75 563.78-20.75L563.78-20.75Q564.18-20.75 564.85-20.33 565.53-19.9 565.53-19.35L565.53-19.35Q565.53-18.9 565.08-17.55 564.63-16.2 564.53-15.85L564.53-15.85Q563.33-12.35 562.6-9.68 561.88-7 561.88-4.9L561.88-4.9Q561.88-1.65 564.13-1.65L564.13-1.65Q565.58-1.65 567.48-2.88 569.38-4.1 571.35-6.4 573.33-8.7 574.98-11.7L574.98-11.7ZM595.38-17.85Q595.58-17.8 595.73-17.55 595.88-17.3 595.88-17L595.88-17Q595.88-15.95 594.9-14.98 593.93-14 592.35-13.4 590.78-12.8 589.18-12.8L589.18-12.8Q586.68-12.8 584.9-14.1 583.13-15.4 582.63-17.75L582.63-17.75Q580.38-17.5 578.5-14.9 576.63-12.3 575.88-9.25L575.88-9.25Q575.78-8.75 575.13-6.18 574.48-3.6 573.88-0.1L573.88-0.1Q573.83 0.05 573.75 0.13 573.68 0.2 573.43 0.2L573.43 0.2Q573.08 0.2 572.38-0.1 571.68-0.4 571.68-0.75L571.68-0.75Q571.68-1.45 571.93-2.6L571.93-2.6Q574.98-16.7 575.88-20.05L575.88-20.05Q575.98-20.5 576.1-20.65 576.23-20.8 576.53-20.8L576.53-20.8Q576.73-20.8 577.38-20.48 578.03-20.15 578.43-19.8L578.43-19.8 577.53-16.9 577.23-15.9Q578.38-17.7 579.88-18.8 581.38-19.9 583.08-19.9L583.08-19.9Q583.58-19.9 584.08-19.8 584.58-19.7 584.78-19.55L584.78-19.55Q584.78-17.1 586.05-15.93 587.33-14.75 589.63-14.75L589.63-14.75Q591.68-14.75 593.03-15.45 594.38-16.15 595.38-17.85L595.38-17.85ZM625.32-14Q625.82-14 626.12-13.53 626.42-13.05 626.42-12.35L626.42-12.35Q626.42-11.45 625.92-10.45L625.92-10.45Q624.52-7.5 621.92-5.03 619.32-2.55 616.3-1.1 613.27 0.35 610.67 0.35L610.67 0.35Q605.37 0.35 605.37-5.8L605.37-5.8Q605.37-10.1 607.72-19.63 610.07-29.15 614.52-44.9L614.52-44.9Q615.47-48.15 616.6-49.7 617.72-51.25 619.17-51.25L619.17-51.25Q620.22-51.25 621.2-50.53 622.17-49.8 622.82-48.3 623.47-46.8 623.47-44.6L623.47-44.6Q623.47-41.05 621.8-35.6 620.12-30.15 616.77-24.1 613.42-18.05 608.72-12.9L608.72-12.9Q607.87-8.5 607.87-6.35L607.87-6.35Q607.87-3.95 608.85-2.93 609.82-1.9 611.57-1.9L611.57-1.9Q614.02-1.9 616.8-3.55 619.57-5.2 621.87-8 624.17-10.8 625.32-14L625.32-14ZM615.82-41.75Q611.62-26.65 609.47-16.7L609.47-16.7Q613.17-21.35 615.85-26.85 618.52-32.35 619.85-37.15 621.17-41.95 621.17-44.7L621.17-44.7Q621.17-46.25 620.72-47.38 620.27-48.5 619.22-48.5L619.22-48.5Q618.62-48.5 617.8-47.25 616.97-46 615.82-41.75L615.82-41.75ZM628.07 0.35Q626.32 0.35 624.94-0.83 623.57-2 623.57-4.3L623.57-4.3Q624.32-6.7 626.17-14.95L626.17-14.95Q627.07-19 627.27-19.8L627.27-19.8Q627.92-20.9 629.07-20.9L629.07-20.9Q629.82-20.9 629.82-20.4L629.82-20.4Q629.47-19.15 628.84-16.43 628.22-13.7 627.87-12.15L627.87-12.15Q626.52-5.95 626.02-4.2L626.02-4.2Q626.02-3.05 626.69-2.43 627.37-1.8 628.47-1.8L628.47-1.8Q630.97-1.8 633.49-3.58 636.02-5.35 637.94-7.7 639.87-10.05 640.82-11.75L640.82-11.75Q641.12-11.65 641.22-11.43 641.32-11.2 641.32-10.65L641.32-10.65Q641.32-9.9 640.82-9.1L640.82-9.1Q638.12-4.85 634.77-2.25 631.42 0.35 628.07 0.35L628.07 0.35ZM630.37-27.15Q629.67-27.15 629.27-27.63 628.87-28.1 628.87-28.85L628.87-28.85Q628.87-29.85 629.52-30.68 630.17-31.5 631.17-31.5L631.17-31.5Q631.97-31.5 632.34-31 632.72-30.5 632.72-29.8L632.72-29.8Q632.72-28.8 632.04-27.98 631.37-27.15 630.37-27.15L630.37-27.15ZM666.62-46.8Q666.62-45.65 665.57-45.05L665.57-45.05Q664.57-45.9 663.17-46.35 661.77-46.8 660.32-46.8L660.32-46.8Q657.42-46.8 655.62-44.58 653.82-42.35 652.12-36.8 650.42-31.25 647.72-19.35L647.72-19.35 657.87-19.5Q657.97-19.35 657.97-19.05L657.97-19.05Q657.97-18.5 657.39-18.05 656.82-17.6 656.27-17.6L656.27-17.6 655.17-17.6Q649.62-17.5 647.27-17.4L647.27-17.4Q645.17-7.9 643.42-0.65L643.42-0.65Q643.22-0.05 643.09 0.5 642.97 1.05 642.87 1.5L642.87 1.5Q640.62 10.45 638.52 16.23 636.42 22 633.52 25.43 630.62 28.85 626.72 28.85L626.72 28.85Q623.57 28.85 621.64 26.83 619.72 24.8 618.92 22.38 618.12 19.95 618.12 18.7L618.12 18.7Q618.12 17.85 618.42 17.2 618.72 16.55 619.32 15.6L619.32 15.6Q619.92 14.8 620.17 14.3L620.17 14.3Q621.12 20.3 622.69 23.08 624.27 25.85 627.52 25.85L627.52 25.85Q630.17 25.85 632.17 23.85 634.17 21.85 635.92 17.32 637.67 12.8 639.57 4.9L639.57 4.9Q641.32-2.5 643.52-12.1L643.52-12.1 644.72-17.3Q641.02-17.2 639.34-16.9 637.67-16.6 636.84-15.83 636.02-15.05 635.37-13.3L635.37-13.3 634.72-13.5Q635.27-16.35 635.92-17.45 636.57-18.55 637.82-18.8L637.82-18.8Q639.62-19.2 645.17-19.35L645.17-19.35Q647.52-29.7 648.94-34.65 650.37-39.6 652.12-42.63 653.87-45.65 656.72-47.55L656.72-47.55Q659.72-49.5 662.57-49.5L662.57-49.5Q664.42-49.5 665.52-48.75 666.62-48 666.62-46.8L666.62-46.8ZM678.61-11.95Q679.51-11.8 679.51-10.95L679.51-10.95Q679.51-8.95 676.94-6.28 674.36-3.6 670.86-1.68 667.36 0.25 665.01 0.25L665.01 0.25Q662.76 0.25 661.11-0.93 659.46-2.1 658.59-3.55 657.71-5 657.71-5.7L657.71-5.7Q658.51-8.55 659.46-13.6L659.46-13.6 660.01-16.4Q660.21-17.4 661.46-18.48 662.71-19.55 664.26-20.28 665.81-21 666.76-21L666.76-21Q667.51-21 668.59-20.53 669.66-20.05 670.49-19.05 671.31-18.05 671.31-16.5L671.31-16.5Q671.31-14.7 670.11-13.1 668.91-11.5 666.56-10.5 664.21-9.5 660.91-9.5L660.91-9.5 660.21-6.15Q660.21-5.7 660.74-4.65 661.26-3.6 662.44-2.75 663.61-1.9 665.41-1.9L665.41-1.9Q667.81-1.9 670.46-3.48 673.11-5.05 675.31-7.4 677.51-9.75 678.61-11.95L678.61-11.95ZM666.36-18.95Q665.76-18.95 664.81-18.45 663.86-17.95 663.09-17.2 662.31-16.45 662.16-15.8L662.16-15.8Q661.66-13.55 661.26-11.25L661.26-11.25Q665.11-11.4 667.06-12.78 669.01-14.15 669.01-15.9L669.01-15.9Q669.01-17.15 668.11-18.05 667.21-18.95 666.36-18.95L666.36-18.95ZM682.96-10.5Q682.46-10.5 682.06-10.63 681.66-10.75 681.66-10.95L681.66-10.95 683.31-20.4Q683.61-22.25 684.39-26.83 685.16-31.4 685.56-33.2L685.56-33.2Q685.91-34.95 686.26-35.48 686.61-36 687.46-36L687.46-36Q688.91-36 690.06-35.25L690.06-35.25Q689.51-34.8 689.31-34.45 689.11-34.1 688.91-33.25L688.91-33.25Q687.51-27.75 686.31-22.3 685.11-16.85 683.81-10.75L683.81-10.75Q683.71-10.5 682.96-10.5L682.96-10.5ZM681.01 0.5Q679.96 0.5 679.34-0.18 678.71-0.85 678.71-2.05L678.71-2.05Q678.71-3.45 679.51-4.4 680.31-5.35 681.61-5.35L681.61-5.35Q682.66-5.35 683.29-4.7 683.91-4.05 683.91-2.85L683.91-2.85Q683.91-1.45 683.11-0.48 682.31 0.5 681.01 0.5L681.01 0.5Z" opacity="1" transform="matrix(1,0,0,1,0,0)" fill="#e4cec5" class="slogan-text-1" data-fill-palette-color="secondary" id="text-1"></path></svg></g></svg></g></svg></g></svg></g><g transform="matrix(1,0,0,1,87.1326678159658,0)"><svg viewBox="0 0 221.25466436806838 221.25466436806838" height="221.25466436806838" width="221.25466436806838"><g><svg></svg></g><g id="icon-0"><svg viewBox="0 0 221.25466436806838 221.25466436806838" height="221.25466436806838" width="221.25466436806838"><g><path d="M0 110.627c0-61.098 49.53-110.627 110.627-110.627 61.098 0 110.627 49.53 110.628 110.627 0 61.098-49.53 110.627-110.628 110.628-61.098 0-110.627-49.53-110.627-110.628zM110.627 213.508c56.819 0 102.88-46.061 102.881-102.881 0-56.819-46.061-102.88-102.881-102.88-56.819 0-102.88 46.061-102.88 102.88 0 56.819 46.061 102.88 102.88 102.881z" data-fill-palette-color="accent" fill="#d7ea21" stroke="transparent"></path></g><g transform="matrix(1,0,0,1,52.18454255151039,55.63881490521609)"><svg viewBox="0 0 116.8855792650476 109.9770345576362" height="109.9770345576362" width="116.8855792650476"><g><svg xmlns="http://www.w3.org/2000/svg" xmlns:xlink="http://www.w3.org/1999/xlink" version="1.1" x="0" y="0" viewBox="0 0 99.99948909065621 94.089" enable-background="new 0 0 99.999 94.088" xml:space="preserve" width="116.8855792650476" height="109.9770345576362" class="icon-cg-0" data-fill-palette-color="accent" id="cg-0"><path d="M98.341 66.867c2.683-6.386 1.653-13.184 0.115-17.044-0.403-1.012-1.363-1.693-2.453-1.74-4.141-0.179-10.915 1.098-16.065 5.756-1.739-1.018-3.756-1.611-5.912-1.611-0.327 0-0.648 0.022-0.969 0.049-0.282-1.782-0.729-3.369-1.234-4.637-0.403-1.012-1.363-1.693-2.453-1.74-5.011-0.227-13.863 1.692-19.042 9.141-2.433-5.163-6.709-8.722-10.021-10.494V34.29c0-7.738-4.506-14.795-11.392-18.129V9.686h0.143c0.764 0 1.384-0.619 1.384-1.384V1.384C30.44 0.619 29.821 0 29.057 0H11.069c-0.764 0-1.384 0.619-1.384 1.384v6.918c0 0.765 0.62 1.384 1.384 1.384h0.323v6.475C4.506 19.494 0 26.551 0 34.29v57.031c0 1.527 1.239 2.768 2.768 2.768h17.255 17.517 54.514c1.303 0 2.429-0.908 2.705-2.182l4.803-22.139c0.178-0.816-0.025-1.67-0.551-2.324C98.82 67.209 98.589 67.026 98.341 66.867zM70.4 58.937c0.838-0.604 1.83-1.006 2.907-1.13 0.236-0.027 0.475-0.045 0.718-0.045 0.812 0 1.585 0.16 2.296 0.444 0.872 0.348 1.646 0.887 2.272 1.565 0.779 0.844 1.329 1.899 1.548 3.073 0.069 0.371 0.11 0.752 0.11 1.144 0 0.86-0.176 1.68-0.492 2.426H78.98h-2.844-2.785-2.473-2.588c-0.087-0.204-0.161-0.415-0.226-0.63-0.172-0.569-0.267-1.171-0.267-1.796C67.799 61.909 68.828 60.068 70.4 58.937zM52.199 64.856C54.235 53.991 63.236 51.898 67.23 51.51c0.173 0.706 0.346 1.587 0.458 2.586-3.257 2.094-5.425 5.742-5.425 9.893 0 0.832 0.09 1.643 0.255 2.426h-4.239l5.761-9.432c0.397-0.652 0.192-1.504-0.46-1.902-0.652-0.4-1.504-0.193-1.902 0.459l-6.643 10.875h-2.725l-0.239-0.17C52.129 65.775 52.172 65.312 52.199 64.856zM37.539 51.821c0.473-0.65 0.935-1.207 1.339-1.656 0.427 0.285 0.912 0.634 1.428 1.047 3.173 2.539 7.468 7.515 6.149 15.203h-4.241l-1.908-9.743-0.058-0.294c-0.146-0.75-0.873-1.242-1.624-1.092-0.559 0.11-0.971 0.542-1.085 1.064-0.039 0.18-0.044 0.369-0.007 0.561l0.007 0.035 1.854 9.469h-1.854-0.826-1.707c-0.084-0.245-0.163-0.488-0.234-0.729-0.138-0.468-0.256-0.932-0.345-1.387-0.29-1.48-0.329-2.887-0.197-4.206 0.097-0.971 0.285-1.893 0.542-2.762 0.145-0.488 0.307-0.962 0.487-1.416C35.898 54.306 36.735 52.926 37.539 51.821zM14.519 66.514c-0.565 0.148-1.078 0.466-1.453 0.93-0.525 0.654-0.728 1.508-0.55 2.324l4.075 18.785H5.535V34.29c0-6.09 3.851-11.597 9.58-13.706 1.088-0.399 1.812-1.438 1.812-2.597V9.686h6.452v8.302c0 1.159 0.724 2.197 1.812 2.597 5.73 2.108 9.581 7.616 9.581 13.706v12.125c-1.378 1.509-2.772 3.439-3.886 5.7-1.592-0.806-3.385-1.271-5.288-1.271-6.485 0-11.761 5.275-11.761 11.76C13.836 63.976 14.085 65.289 14.519 66.514zM29.23 66.415h-8.546c-0.82-1.055-1.313-2.375-1.313-3.811 0-3.434 2.793-6.227 6.227-6.227 1.274 0 2.459 0.386 3.448 1.046C28.471 60.182 28.427 63.214 29.23 66.415zM92.913 74.305l-3.091 14.248H40.306h-2.767-2.768H22.254l-3.569-16.455-0.032-0.148h12.792 1.265 2.062 2.457 0.311 2.767 0.248 2.415 3.602H50.3h7.938 1.872 1.773 3.51 1.087 3.37 8.35 4.456 1.011 3.131 4.605 2.021L92.913 74.305zM92.386 66.415h-6.854c0.165-0.783 0.255-1.594 0.255-2.426 0-2.313-0.681-4.468-1.84-6.289 3.399-2.925 7.542-3.775 9.919-4.006C94.525 56.397 95.202 61.625 92.386 66.415z" fill="#d7ea21" data-fill-palette-color="accent"></path></svg></g></svg></g></svg></g></svg></g><g></g></svg></g><defs></defs></svg><rect width="234.8278655115501" height="247.2" fill="none" stroke="none" visibility="hidden"></rect></g></svg></g></svg>